<?xml version="1.0" encoding="UTF-8"?>
<svg xmlns="http://www.w3.org/2000/svg" width="536" height="560" viewBox="0 0 536 560">
<rect width="100%" height="100%" fill="white"/>
<polyline points="74,136 204,66" fill="none" stroke="#6b7280" stroke-width="1.2"/>
<polyline points="74,126 204,106" fill="none" stroke="#6b7280" stroke-width="1.2"/>
<polyline points="74,122 204,172" fill="none" stroke="#6b7280" stroke-width="1.2"/>
<polyline points="74,122 204,222" fill="none" stroke="#6b7280" stroke-width="1.2"/>
<polyline points="74,122 204,292" fill="none" stroke="#6b7280" stroke-width="1.2"/>
<polyline points="74,122 204,352" fill="none" stroke="#6b7280" stroke-width="1.2"/>
<polyline points="338,354 478,414" fill="none" stroke="#6b7280" stroke-width="1.2"/>
<polyline points="338,404 478,404" fill="none" stroke="#6b7280" stroke-width="1.2"/>
<polyline points="338,472 478,402" fill="none" stroke="#6b7280" stroke-width="1.2"/>
<polyline points="74,346 204,66" fill="none" stroke="#6b7280" stroke-width="1.2" stroke-dasharray="5 4"/>
<polyline points="74,336 204,106" fill="none" stroke="#6b7280" stroke-width="1.2" stroke-dasharray="5 4"/>
<polyline points="74,322 204,162" fill="none" stroke="#6b7280" stroke-width="1.2" stroke-dasharray="5 4"/>
<polyline points="74,312 204,202" fill="none" stroke="#6b7280" stroke-width="1.2" stroke-dasharray="5 4"/>
<polyline points="74,298 204,258" fill="none" stroke="#6b7280" stroke-width="1.2" stroke-dasharray="5 4"/>
<polyline points="74,290 204,310" fill="none" stroke="#6b7280" stroke-width="1.2" stroke-dasharray="5 4"/>
<polyline points="258,122 258,152" fill="none" stroke="#6b7280" stroke-width="1.2" stroke-dasharray="5 4"/>
<rect x="260" y="119" width="86" height="23" fill="white" opacity="0.86"/>
<text x="266" y="133" font-size="11" font-family="Arial, sans-serif">&lt;&lt;extends&gt;&gt;</text>
<polyline points="258,218 258,248" fill="none" stroke="#6b7280" stroke-width="1.2" stroke-dasharray="5 4"/>
<rect x="260" y="215" width="92" height="23" fill="white" opacity="0.86"/>
<text x="266" y="229" font-size="11" font-family="Arial, sans-serif">&lt;&lt;includes&gt;&gt;</text>
<polyline points="338,332 368,332 368,202 338,202" fill="none" stroke="#6b7280" stroke-width="1.2" stroke-dasharray="5 4"/>
<rect x="355" y="249" width="92" height="23" fill="white" opacity="0.86"/>
<text x="361" y="263" font-size="11" font-family="Arial, sans-serif">&lt;&lt;includes&gt;&gt;</text>
<rect x="144" y="8" width="272" height="512" fill="none" stroke="#111827" stroke-width="1.5"/>
<text x="280.0" y="30" text-anchor="middle" font-size="14" font-family="Arial, sans-serif" font-weight="bold">APU Kiosk System</text>
<ellipse cx="256.0" cy="64.0" rx="80.0" ry="16.0" fill="#fff" stroke="#1f2933" stroke-width="1.5"/>
<text x="256.0" y="69.0" text-anchor="middle" font-size="12" font-family="Arial, sans-serif">Identify user / check balance</text>
<ellipse cx="256.0" cy="104.0" rx="80.0" ry="16.0" fill="#fff" stroke="#1f2933" stroke-width="1.5"/>
<text x="256.0" y="109.0" text-anchor="middle" font-size="12" font-family="Arial, sans-serif">Browse menu</text>
<ellipse cx="256.0" cy="160.0" rx="80.0" ry="16.0" fill="#fff" stroke="#1f2933" stroke-width="1.5"/>
<text x="256.0" y="165.0" text-anchor="middle" font-size="12" font-family="Arial, sans-serif">Customise drink / snack</text>
<ellipse cx="256.0" cy="200.0" rx="80.0" ry="16.0" fill="#fff" stroke="#1f2933" stroke-width="1.5"/>
<text x="256.0" y="205.0" text-anchor="middle" font-size="12" font-family="Arial, sans-serif">Place order</text>
<ellipse cx="256.0" cy="256.0" rx="80.0" ry="16.0" fill="#fff" stroke="#1f2933" stroke-width="1.5"/>
<text x="256.0" y="261.0" text-anchor="middle" font-size="12" font-family="Arial, sans-serif">Deduct card balance</text>
<ellipse cx="256.0" cy="304.0" rx="80.0" ry="16.0" fill="#fff" stroke="#1f2933" stroke-width="1.5"/>
<text x="256.0" y="309.0" text-anchor="middle" font-size="12" font-family="Arial, sans-serif">Log transaction</text>
<ellipse cx="256.0" cy="352.0" rx="80.0" ry="16.0" fill="#fff" stroke="#1f2933" stroke-width="1.5"/>
<text x="256.0" y="357.0" text-anchor="middle" font-size="12" font-family="Arial, sans-serif">Receive order notification</text>
<ellipse cx="256.0" cy="400.0" rx="80.0" ry="16.0" fill="#fff" stroke="#1f2933" stroke-width="1.5"/>
<text x="256.0" y="405.0" text-anchor="middle" font-size="12" font-family="Arial, sans-serif">Update price / availability</text>
<ellipse cx="256.0" cy="456.0" rx="80.0" ry="16.0" fill="#fff" stroke="#1f2933" stroke-width="1.5"/>
<text x="256.0" y="461.0" text-anchor="middle" font-size="12" font-family="Arial, sans-serif">Broadcast menu changes</text>
<circle cx="48.0" cy="102" r="10" fill="#fff" stroke="#1f2933" stroke-width="1.5"/>
<line x1="48.0" y1="112" x2="48.0" y2="140" stroke="#1f2933" stroke-width="1.5"/>
<line x1="34" y1="122" x2="62" y2="122" stroke="#1f2933" stroke-width="1.5"/>
<line x1="48.0" y1="140" x2="36" y2="158" stroke="#1f2933" stroke-width="1.5"/>
<line x1="48.0" y1="140" x2="60" y2="158" stroke="#1f2933" stroke-width="1.5"/>
<text x="48.0" y="174" text-anchor="middle" font-size="12" font-family="Arial, sans-serif">Student</text>
<circle cx="48.0" cy="270" r="10" fill="#fff" stroke="#1f2933" stroke-width="1.5"/>
<line x1="48.0" y1="280" x2="48.0" y2="308" stroke="#1f2933" stroke-width="1.5"/>
<line x1="18" y1="290" x2="78" y2="290" stroke="#1f2933" stroke-width="1.5"/>
<line x1="48.0" y1="308" x2="20" y2="326" stroke="#1f2933" stroke-width="1.5"/>
<line x1="48.0" y1="308" x2="76" y2="326" stroke="#1f2933" stroke-width="1.5"/>
<text x="48.0" y="342" text-anchor="middle" font-size="12" font-family="Arial, sans-serif">Staff / Lecturer</text>
<circle cx="456.0" cy="382" r="10" fill="#fff" stroke="#1f2933" stroke-width="1.5"/>
<line x1="456.0" y1="392" x2="456.0" y2="420" stroke="#1f2933" stroke-width="1.5"/>
<line x1="426" y1="402" x2="486" y2="402" stroke="#1f2933" stroke-width="1.5"/>
<line x1="456.0" y1="420" x2="428" y2="438" stroke="#1f2933" stroke-width="1.5"/>
<line x1="456.0" y1="420" x2="484" y2="438" stroke="#1f2933" stroke-width="1.5"/>
<text x="456.0" y="454" text-anchor="middle" font-size="12" font-family="Arial, sans-serif">Admin / Staff</text>
</svg>